<svg width="1440" height="241" viewBox="0 0 1440 241" fill="none" xmlns="http://www.w3.org/2000/svg">
<path d="M80 80H160V160H80V80Z" fill="#685162"/>
<path d="M240 0H280C302.091 0 320 17.9086 320 40V80H240V0Z" fill="#685162"/>
<path d="M400 0H440C462.091 0 480 17.9086 480 40V80H400V0Z" fill="#685162"/>
<path d="M639.999 80H679.999C702.09 80 719.999 97.9086 719.999 120V160H639.999V80Z" fill="#685162"/>
<path d="M800 0H840C862.091 0 880 17.9086 880 40V80H800V0Z" fill="#685162"/>
<path d="M1120 80H1160C1182.09 80 1200 97.9086 1200 120V160H1120V80Z" fill="#685162"/>
<path d="M1200 0H1280V80H1200V0Z" fill="#685162"/>
<path d="M1280 80H1320C1342.09 80 1360 97.9086 1360 120V160H1280V80Z" fill="#685162"/>
<path d="M1200 160.002H1280V240.002H1200V160.002Z" fill="#685162"/>
<path d="M400 160.002H480V240.002H400V160.002Z" fill="#685162"/>
<path d="M720 160.002H800V240.002H720V160.002Z" fill="#685162"/>
</svg>
