<svg width="1440" height="241" viewBox="0 0 1440 241" fill="none" xmlns="http://www.w3.org/2000/svg">
<path d="M80 40C80 17.9086 97.9086 0 120 0H160V80H80V40Z" fill="#513D4C"/>
<path d="M480 200.001C480 177.91 497.909 160.001 520 160.001H560V240.001H480V200.001Z" fill="#513D4C"/>
<path d="M560 79.9995H640V160H560V79.9995Z" fill="#513D4C"/>
<path d="M622.222 119.778C622.222 132.174 612.173 142.223 599.777 142.223C587.382 142.223 577.333 132.174 577.333 119.778C577.333 107.383 587.382 97.334 599.777 97.334C612.173 97.334 622.222 107.383 622.222 119.778Z" fill="white"/>
<path d="M617.333 119.777C617.333 129.473 609.473 137.333 599.777 137.333C590.082 137.333 582.222 129.473 582.222 119.777C582.222 110.082 590.082 102.222 599.777 102.222C609.473 102.222 617.333 110.082 617.333 119.777Z" fill="#513D4C"/>
<path d="M633.777 89.333C633.777 91.5421 631.986 93.333 629.777 93.333C627.568 93.333 625.777 91.5421 625.777 89.333C625.777 87.1239 627.568 85.333 629.777 85.333C631.986 85.333 633.777 87.1239 633.777 89.333Z" fill="white"/>
<path d="M880 120C880 97.9081 897.909 79.9995 920 79.9995H960V160H880V120Z" fill="#513D4C"/>
<path d="M240 200.001C240 177.91 257.908 160.001 280 160.001H320V240.001H240V200.001Z" fill="#513D4C"/>
<path d="M258.667 191.114H276.444V237.336H258.667V191.114Z" fill="white"/>
<path d="M279.11 191.113H296.888V237.335H279.11V191.113Z" fill="white"/>
<path d="M299.556 191.113H317.333V237.335H299.556V191.113Z" fill="white"/>
<path d="M269.333 191.113H283.111V223.113H269.333V191.113Z" fill="#513D4C"/>
<path d="M291.556 191.113H305.333V223.113H291.556V191.113Z" fill="#513D4C"/>
</svg>
