<svg width="1440" height="241" viewBox="0 0 1440 241" fill="none" xmlns="http://www.w3.org/2000/svg">
<path d="M80.0005 200C80.0005 222.091 62.0919 240 40.0005 240H0.000482321V200C0.000482321 177.909 17.9091 160 40.0005 160V160C62.0919 160 80.0005 177.909 80.0005 200V200Z" fill="#DE3600"/>
<path d="M1317.78 240C1296.91 240 1280 223.086 1280 202.222V160H1322.22C1343.09 160 1360 176.914 1360 197.778V240H1317.78Z" fill="#DE3600"/>
<path d="M37.7778 80C16.9137 80 0 63.0863 0 42.2222L0 -5.96046e-06H42.2222C63.0863 -5.96046e-06 80 16.9137 80 37.7778V80H37.7778Z" fill="#DE3600"/>
<path d="M320 120.002C320 142.093 302.091 160.002 280 160.002H240V120.002C240 97.9106 257.909 80.0019 280 80.0019V80.0019C302.091 80.0019 320 97.9106 320 120.002V120.002Z" fill="#DE3600"/>
<path d="M640 40C640 62.0914 622.091 80 600 80L560 80V40C560 17.9086 577.909 -5.96046e-06 600 -5.96046e-06V-5.96046e-06C622.091 -5.96046e-06 640 17.9086 640 40V40Z" fill="#DE3600"/>
<path d="M517.778 160.002C496.914 160.002 480 143.088 480 122.224V80.0019H522.222C543.086 80.0019 560 96.9156 560 117.78V160.002H517.778Z" fill="#DE3600"/>
<path d="M757.778 80C736.914 80 720 63.0863 720 42.2222V-5.96046e-06H762.222C783.086 -5.96046e-06 800 16.9137 800 37.7778V80H757.778Z" fill="#DE3600"/>
<path d="M837.778 240C816.914 240 800 223.086 800 202.222V160H842.222C863.086 160 880 176.914 880 197.778V240H837.778Z" fill="#DE3600"/>
<path d="M879.999 120.002C879.999 142.093 862.09 160.002 839.999 160.002H799.999V120.002C799.999 97.9106 817.908 80.0019 839.999 80.0019V80.0019C862.09 80.0019 879.999 97.9106 879.999 120.002V120.002Z" fill="#DE3600"/>
<path d="M960 40C960 62.0914 942.091 80 920 80L880 80V40C880 17.9086 897.909 -5.96046e-06 920 -5.96046e-06V-5.96046e-06C942.091 -5.96046e-06 960 17.9086 960 40V40Z" fill="#DE3600"/>
<path d="M1077.78 80C1056.91 80 1040 63.0863 1040 42.2222V-5.96046e-06H1082.22C1103.09 -5.96046e-06 1120 16.9137 1120 37.7778V80H1077.78Z" fill="#DE3600"/>
<path d="M997.778 240C976.914 240 960 223.086 960 202.222V160H1002.22C1023.09 160 1040 176.914 1040 197.778V240H997.778Z" fill="#DE3600"/>
<path d="M1200 200C1200 222.091 1182.09 240 1160 240H1120V200C1120 177.909 1137.91 160 1160 160V160C1182.09 160 1200 177.909 1200 200V200Z" fill="#DE3600"/>
<path d="M1317.78 80C1296.91 80 1280 63.0863 1280 42.2222V-5.96046e-06H1322.22C1343.09 -5.96046e-06 1360 16.9137 1360 37.7778V80H1317.78Z" fill="#DE3600"/>
<path d="M1440 120.002C1440 142.093 1422.09 160.002 1400 160.002H1360V120.002C1360 97.9106 1377.91 80.0019 1400 80.0019V80.0019C1422.09 80.0019 1440 97.9106 1440 120.002V120.002Z" fill="#DE3600"/>
<path d="M128.023 160.002C140.478 165.784 149.087 178.152 149.087 192.479C149.087 212.34 132.546 228.441 112.143 228.441C110.581 228.441 109.04 228.347 107.53 228.163C103.499 232.365 94.0131 236.353 80.0005 240.002H118.341C141.348 240.002 160 221.845 160 199.45C159.997 180.298 146.359 164.251 128.023 160.002Z" fill="#DE3600"/>
<path d="M118.317 210.595C126.806 210.595 133.688 203.896 133.688 195.633C133.688 187.37 126.806 180.671 118.317 180.671C109.828 180.671 102.947 187.37 102.947 195.633C102.947 203.896 109.828 210.595 118.317 210.595Z" fill="#DE3600"/>
</svg>
