<svg width="1440" height="241" viewBox="0 0 1440 241" fill="none" xmlns="http://www.w3.org/2000/svg">
<path d="M0 117.778C0 96.9137 16.9137 80 37.7778 80H80V122.222C80 143.086 63.0863 160 42.2222 160H0V117.778Z" fill="#FF672A"/>
<path d="M160 120C160 97.9086 177.908 80 200 80H240V120C240 142.091 222.091 160 200 160V160C177.908 160 160 142.091 160 120V120Z" fill="#FF672A"/>
<path d="M160 37.7778C160 16.9137 176.913 0 197.777 0H240V42.2222C240 63.0863 223.086 80 202.222 80H160V37.7778Z" fill="#FF672A"/>
<path d="M357.777 160.001C336.913 160.001 320 143.087 320 122.223V80.001H362.222C383.086 80.001 400 96.9147 400 117.779V160.001H357.777Z" fill="#FF672A"/>
<path d="M399.999 160.001H395.777C378.037 144.428 366.215 132.101 352.735 115.779C352.465 115.451 348.782 114.174 344.888 112.668C341.019 111.17 336.666 109.112 336.666 109.112L349.463 111.779C344.748 105.965 339.768 99.6171 334.222 92.4453C334.222 92.4453 352.744 112.912 365.555 125.779L364.222 109.112C364.222 109.112 365.777 113.334 366.666 119.112C367.555 124.89 367.999 128.382 367.999 128.382C368.85 129.194 369.667 129.959 370.444 130.668C383.111 142.223 399.999 156.445 399.999 156.445V160.001Z" fill="white"/>
<path d="M320 37.7778C320 16.9137 336.914 0 357.778 0H400V42.2222C400 63.0863 383.086 80 362.222 80H320V37.7778Z" fill="#FF672A"/>
<path d="M480 40C480 17.9086 497.909 0 520 0H560V40C560 62.0914 542.091 80 520 80V80C497.909 80 480 62.0914 480 40V40Z" fill="#FF672A"/>
<path d="M320 197.78C320 176.916 336.914 160.002 357.778 160.002H400V202.224C400 223.088 383.086 240.002 362.222 240.002H320V197.78Z" fill="#FF672A"/>
<path d="M640 37.7778C640 16.9137 656.914 0 677.778 0H720V42.2222C720 63.0863 703.086 80 682.222 80H640V37.7778Z" fill="#FF672A"/>
<path d="M640 197.78C640 176.916 656.914 160.002 677.778 160.002H720V202.224C720 223.088 703.086 240.002 682.222 240.002H640V197.78Z" fill="#FF672A"/>
<path d="M720 117.778C720 96.9137 736.914 80 757.778 80H800V122.222C800 143.086 783.086 160 762.222 160H720V117.778Z" fill="#FF672A"/>
<path d="M960 120C960 97.9086 977.909 80 1000 80H1040V120C1040 142.091 1022.09 160 1000 160V160C977.909 160 960 142.091 960 120V120Z" fill="#FF672A"/>
<path d="M879.999 197.78C879.999 176.916 896.913 160.002 917.777 160.002H959.999V202.224C959.999 223.088 943.085 240.002 922.221 240.002H879.999V197.78Z" fill="#FF672A"/>
<path d="M1040 117.778C1040 96.9137 1056.91 80 1077.78 80H1120V122.222C1120 143.086 1103.09 160 1082.22 160H1040V117.778Z" fill="#FF672A"/>
<path d="M1040 200.002C1040 177.911 1057.91 160.002 1080 160.002H1120V200.002C1120 222.093 1102.09 240.002 1080 240.002V240.002C1057.91 240.002 1040 222.093 1040 200.002V200.002Z" fill="#FF672A"/>
<path d="M1120 37.7778C1120 16.9137 1136.91 0 1157.78 0H1200V42.2222C1200 63.0863 1183.09 80 1162.22 80H1120V37.7778Z" fill="#FF672A"/>
<path d="M1360 40C1360 17.9086 1377.91 0 1400 0H1440V40C1440 62.0914 1422.09 80 1400 80V80C1377.91 80 1360 62.0914 1360 40V40Z" fill="#FF672A"/>
<path d="M1360 197.78C1360 176.916 1376.91 160.002 1397.78 160.002H1440V202.224C1440 223.088 1423.09 240.002 1402.22 240.002H1360V197.78Z" fill="#FF672A"/>
<path d="M997.778 80C976.914 80 960 63.0863 960 42.2222V-5.96046e-06H1002.22C1023.09 -5.96046e-06 1040 16.9137 1040 37.7778V80H997.778Z" fill="#FF672A"/>
<path d="M1040 79.9999H1035.78C1018.04 64.427 1006.22 52.1002 992.736 35.7777C992.466 35.4505 988.783 34.1732 984.889 32.6666C981.02 31.1694 976.667 29.111 976.667 29.111L989.464 31.7777C984.749 25.9641 979.769 19.6161 974.223 12.4443C974.223 12.4443 992.745 32.9107 1005.56 45.7777L1004.22 29.111C1004.22 29.111 1005.78 33.3332 1006.67 39.111C1007.56 44.8888 1008 48.3805 1008 48.3805C1008.85 49.1929 1009.67 49.9581 1010.44 50.6666C1023.11 62.2221 1040 76.4443 1040 76.4443V79.9999Z" fill="white"/>
</svg>
