<svg width="55" height="55" viewBox="0 0 55 55" fill="none" xmlns="http://www.w3.org/2000/svg">
<g clip-path="url(#clip0)">
<path d="M0 27.5C0 12.3122 12.3122 0 27.5 0H55V27.5C55 42.6878 42.6878 55 27.5 55C12.3122 55 0 42.6878 0 27.5Z" fill="#FD4200"/>
<path d="M23.25 17L25.2 18.4C24.8333 18.8667 24.4167 19.5333 23.95 20.4C23.5167 21.2667 23.1333 22.2333 22.8 23.3C22.4667 24.3333 22.3167 25.3333 22.35 26.3C22.5833 26.2333 22.7667 26.2 22.9 26.2C23.0667 26.1667 23.2333 26.15 23.4 26.15C24.3 26.15 25.1 26.4167 25.8 26.95C26.5 27.4833 26.85 28.3167 26.85 29.45C26.85 30.45 26.5167 31.3333 25.85 32.1C25.2167 32.8333 24.35 33.2 23.25 33.2C21.7167 33.2333 20.5667 32.75 19.8 31.75C19.0333 30.7167 18.65 29.45 18.65 27.95C18.65 26.8833 18.8167 25.75 19.15 24.55C19.4833 23.35 19.9833 22.1167 20.65 20.85C21.35 19.5833 22.2167 18.3 23.25 17ZM33.25 17L35.2 18.4C34.8333 18.8667 34.4167 19.5333 33.95 20.4C33.5167 21.2667 33.1333 22.2333 32.8 23.3C32.4667 24.3333 32.3167 25.3333 32.35 26.3C32.5833 26.2333 32.7667 26.2 32.9 26.2C33.0667 26.1667 33.2333 26.15 33.4 26.15C34.3 26.15 35.1 26.4167 35.8 26.95C36.5 27.4833 36.85 28.3167 36.85 29.45C36.85 30.45 36.5167 31.3333 35.85 32.1C35.2167 32.8333 34.35 33.2 33.25 33.2C31.7167 33.2333 30.5667 32.75 29.8 31.75C29.0333 30.7167 28.65 29.45 28.65 27.95C28.65 26.8833 28.8167 25.75 29.15 24.55C29.4833 23.35 29.9833 22.1167 30.65 20.85C31.35 19.5833 32.2167 18.3 33.25 17Z" fill="white"/>
</g>
<defs>
<clipPath id="clip0">
<path d="M0 27.5C0 12.3122 12.3122 0 27.5 0H55V27.5C55 42.6878 42.6878 55 27.5 55C12.3122 55 0 42.6878 0 27.5Z" fill="white"/>
</clipPath>
</defs>
</svg>
