<svg width="55" height="55" viewBox="0 0 55 55" fill="none" xmlns="http://www.w3.org/2000/svg">
<path d="M0 27.5C0 12.3122 12.3122 0 27.5 0H55V27.5C55 42.6878 42.6878 55 27.5 55C12.3122 55 0 42.6878 0 27.5Z" fill="#FD4200"/>
<path d="M15.9 34V32.812C16.176 32.8 16.404 32.764 16.584 32.704C16.776 32.644 16.92 32.506 17.016 32.29C17.124 32.074 17.178 31.726 17.178 31.246V24.352C17.178 24.028 17.184 23.716 17.196 23.416C17.22 23.116 17.238 22.888 17.25 22.732C17.058 22.744 16.818 22.756 16.53 22.768C16.242 22.768 16.032 22.774 15.9 22.786V21.4H21.066V22.588C20.802 22.6 20.574 22.636 20.382 22.696C20.19 22.756 20.04 22.894 19.932 23.11C19.836 23.314 19.788 23.662 19.788 24.154V26.962H24.738V24.352C24.738 24.028 24.744 23.716 24.756 23.416C24.768 23.116 24.786 22.888 24.81 22.732C24.618 22.744 24.378 22.756 24.09 22.768C23.802 22.768 23.592 22.774 23.46 22.786V21.4H28.626V22.588C28.362 22.6 28.134 22.636 27.942 22.696C27.75 22.756 27.6 22.894 27.492 23.11C27.396 23.314 27.348 23.662 27.348 24.154V31.048C27.348 31.372 27.342 31.684 27.33 31.984C27.318 32.284 27.3 32.512 27.276 32.668C27.468 32.644 27.708 32.632 27.996 32.632C28.296 32.62 28.506 32.614 28.626 32.614V34H23.46V32.812C23.736 32.8 23.964 32.764 24.144 32.704C24.336 32.644 24.48 32.506 24.576 32.29C24.684 32.074 24.738 31.726 24.738 31.246V28.33L19.788 28.384V31.048C19.788 31.372 19.782 31.684 19.77 31.984C19.758 32.284 19.74 32.512 19.716 32.668C19.908 32.644 20.148 32.632 20.436 32.632C20.736 32.62 20.946 32.614 21.066 32.614V34H15.9ZM30.0466 32.83C30.3826 32.83 30.6226 32.764 30.7666 32.632C30.9106 32.5 31.0006 32.314 31.0366 32.074C31.0846 31.822 31.1086 31.54 31.1086 31.228V28.24C31.1086 28.024 31.1146 27.778 31.1266 27.502C31.1386 27.214 31.1566 26.938 31.1806 26.674C30.9886 26.686 30.7606 26.698 30.4966 26.71C30.2446 26.71 30.0526 26.716 29.9206 26.728V25.36C30.4726 25.36 30.9406 25.33 31.3246 25.27C31.7086 25.21 32.0086 25.138 32.2246 25.054C32.4526 24.97 32.6086 24.892 32.6926 24.82H33.6646V31.102C33.6646 31.27 33.6586 31.51 33.6466 31.822C33.6346 32.122 33.6166 32.41 33.5926 32.686C33.7846 32.662 33.9946 32.65 34.2226 32.65C34.4626 32.638 34.6426 32.632 34.7626 32.632V34H30.0466V32.83ZM32.2966 23.398C31.8886 23.398 31.5526 23.254 31.2886 22.966C31.0246 22.678 30.8926 22.33 30.8926 21.922C30.8926 21.514 31.0306 21.166 31.3066 20.878C31.5826 20.59 31.9066 20.446 32.2786 20.446C32.6626 20.446 32.9806 20.59 33.2326 20.878C33.4966 21.166 33.6286 21.514 33.6286 21.922C33.6286 22.33 33.5086 22.678 33.2686 22.966C33.0286 23.254 32.7046 23.398 32.2966 23.398ZM36.9073 30.166L36.2233 22.75C36.1873 22.366 36.2773 22 36.4933 21.652C36.7213 21.292 37.0633 21.112 37.5193 21.112C38.0113 21.112 38.3533 21.292 38.5453 21.652C38.7493 22 38.8333 22.366 38.7973 22.75L38.1313 30.166H36.9073ZM37.5013 34.288C37.1533 34.288 36.8473 34.15 36.5833 33.874C36.3313 33.598 36.2053 33.268 36.2053 32.884C36.2053 32.5 36.3373 32.17 36.6013 31.894C36.8653 31.618 37.1713 31.48 37.5193 31.48C37.8913 31.48 38.1973 31.618 38.4373 31.894C38.6893 32.17 38.8153 32.5 38.8153 32.884C38.8153 33.268 38.6833 33.598 38.4193 33.874C38.1553 34.15 37.8493 34.288 37.5013 34.288Z" fill="white"/>
</svg>
