<svg width="109" height="109" viewBox="0 0 109 109" fill="none" xmlns="http://www.w3.org/2000/svg">
<path d="M54.5 0.5H108.5V54.5C108.5 84.3234 84.3234 108.5 54.5 108.5C24.6766 108.5 0.5 84.3234 0.5 54.5C0.5 24.6766 24.6766 0.5 54.5 0.5Z" fill="url(#paint0_radial)"/>
<path d="M34.872 66V64.02C35.544 63.996 36.06 63.888 36.42 63.696C36.78 63.48 37.032 63.12 37.176 62.616C37.32 62.088 37.392 61.368 37.392 60.456V46.092C37.392 45.492 37.404 44.916 37.428 44.364C37.476 43.812 37.512 43.38 37.536 43.068C37.128 43.092 36.66 43.116 36.132 43.14C35.604 43.14 35.184 43.152 34.872 43.176V40.8H44.448V42.78C43.8 42.804 43.284 42.924 42.9 43.14C42.54 43.332 42.288 43.68 42.144 44.184C42 44.688 41.928 45.408 41.928 46.344V52.068H52.8V46.092C52.8 45.492 52.812 44.916 52.836 44.364C52.86 43.812 52.896 43.38 52.944 43.068C52.536 43.092 52.068 43.116 51.54 43.14C51.012 43.14 50.592 43.152 50.28 43.176V40.8H59.856V42.78C59.208 42.804 58.692 42.924 58.308 43.14C57.948 43.332 57.696 43.68 57.552 44.184C57.408 44.688 57.336 45.408 57.336 46.344V60.636C57.336 61.284 57.324 61.884 57.3 62.436C57.276 62.988 57.24 63.42 57.192 63.732C57.6 63.708 58.068 63.684 58.596 63.66C59.148 63.636 59.568 63.624 59.856 63.624V66H50.28V64.02C50.952 63.996 51.468 63.888 51.828 63.696C52.188 63.48 52.44 63.12 52.584 62.616C52.728 62.088 52.8 61.368 52.8 60.456V54.372L41.928 54.516V60.636C41.928 61.284 41.916 61.884 41.892 62.436C41.868 62.988 41.832 63.42 41.784 63.732C42.192 63.708 42.66 63.684 43.188 63.66C43.716 63.636 44.136 63.624 44.448 63.624V66H34.872ZM62.8831 64.092C63.5791 64.092 64.0711 63.948 64.3591 63.66C64.6471 63.348 64.8271 62.916 64.8991 62.364C64.9711 61.812 65.0071 61.188 65.0071 60.492V53.76C65.0071 53.352 65.0191 52.908 65.0431 52.428C65.0671 51.924 65.1031 51.408 65.1511 50.88C64.7431 50.904 64.2991 50.928 63.8191 50.952C63.3391 50.976 62.9431 51 62.6311 51.024V48.684C63.7111 48.684 64.5991 48.636 65.2951 48.54C66.0151 48.42 66.5671 48.276 66.9511 48.108C67.3591 47.94 67.6471 47.784 67.8151 47.64H69.4351V60.852C69.4351 61.236 69.4231 61.704 69.3991 62.256C69.3991 62.784 69.3631 63.3 69.2911 63.804C69.6751 63.756 70.0831 63.732 70.5151 63.732C70.9711 63.708 71.3431 63.696 71.6311 63.696V66H62.8831V64.092ZM67.0231 44.544C66.3271 44.544 65.7391 44.292 65.2591 43.788C64.7791 43.26 64.5391 42.624 64.5391 41.88C64.5391 41.136 64.7791 40.5 65.2591 39.972C65.7631 39.444 66.3511 39.18 67.0231 39.18C67.7191 39.18 68.2951 39.444 68.7511 39.972C69.2311 40.5 69.4711 41.136 69.4711 41.88C69.4711 42.624 69.2431 43.26 68.7871 43.788C68.3311 44.292 67.7431 44.544 67.0231 44.544ZM76.2219 58.116L74.8539 43.284C74.7819 42.564 74.9499 41.88 75.3579 41.232C75.7899 40.56 76.4259 40.224 77.2659 40.224C78.1779 40.224 78.8139 40.56 79.1739 41.232C79.5579 41.88 79.7259 42.564 79.6779 43.284L78.3099 58.116H76.2219ZM77.2299 66.576C76.5819 66.576 76.0179 66.324 75.5379 65.82C75.0579 65.292 74.8179 64.668 74.8179 63.948C74.8179 63.204 75.0579 62.58 75.5379 62.076C76.0419 61.548 76.6179 61.284 77.2659 61.284C77.9619 61.284 78.5379 61.548 78.9939 62.076C79.4739 62.58 79.7139 63.204 79.7139 63.948C79.7139 64.668 79.4619 65.292 78.9579 65.82C78.4539 66.324 77.8779 66.576 77.2299 66.576Z" fill="white"/>
<path d="M54.5 0.5H108.5V54.5C108.5 84.3234 84.3234 108.5 54.5 108.5C24.6766 108.5 0.5 84.3234 0.5 54.5C0.5 24.6766 24.6766 0.5 54.5 0.5Z" stroke="#FF672A"/>
<defs>
<radialGradient id="paint0_radial" cx="0" cy="0" r="1" gradientUnits="userSpaceOnUse" gradientTransform="translate(23.2533 74.12) rotate(-14.8265) scale(102.23)">
<stop stop-color="#FD4200"/>
<stop offset="1" stop-color="#FF7F30"/>
</radialGradient>
</defs>
</svg>
