<svg width="75" height="75" viewBox="0 0 75 75" fill="none" xmlns="http://www.w3.org/2000/svg">
<path d="M0 37.5C0 16.7893 16.7893 0 37.5 0H75V37.5C75 58.2107 58.2107 75 37.5 75V75C16.7893 75 0 58.2107 0 37.5V37.5Z" fill="url(#paint0_radial)"/>
<path d="M23.2 45V43.416C23.568 43.4 23.872 43.352 24.112 43.272C24.368 43.192 24.56 43.008 24.688 42.72C24.832 42.432 24.904 41.968 24.904 41.328V32.136C24.904 31.704 24.912 31.288 24.928 30.888C24.96 30.488 24.984 30.184 25 29.976C24.744 29.992 24.424 30.008 24.04 30.024C23.656 30.024 23.376 30.032 23.2 30.048V28.2H30.088V29.784C29.736 29.8 29.432 29.848 29.176 29.928C28.92 30.008 28.72 30.192 28.576 30.48C28.448 30.752 28.384 31.216 28.384 31.872V35.616H34.984V32.136C34.984 31.704 34.992 31.288 35.008 30.888C35.024 30.488 35.048 30.184 35.08 29.976C34.824 29.992 34.504 30.008 34.12 30.024C33.736 30.024 33.456 30.032 33.28 30.048V28.2H40.168V29.784C39.816 29.8 39.512 29.848 39.256 29.928C39 30.008 38.8 30.192 38.656 30.48C38.528 30.752 38.464 31.216 38.464 31.872V41.064C38.464 41.496 38.456 41.912 38.44 42.312C38.424 42.712 38.4 43.016 38.368 43.224C38.624 43.192 38.944 43.176 39.328 43.176C39.728 43.16 40.008 43.152 40.168 43.152V45H33.28V43.416C33.648 43.4 33.952 43.352 34.192 43.272C34.448 43.192 34.64 43.008 34.768 42.72C34.912 42.432 34.984 41.968 34.984 41.328V37.44L28.384 37.512V41.064C28.384 41.496 28.376 41.912 28.36 42.312C28.344 42.712 28.32 43.016 28.288 43.224C28.544 43.192 28.864 43.176 29.248 43.176C29.648 43.16 29.928 43.152 30.088 43.152V45H23.2ZM42.0621 43.44C42.5101 43.44 42.8301 43.352 43.0221 43.176C43.2141 43 43.3341 42.752 43.3821 42.432C43.4461 42.096 43.4781 41.72 43.4781 41.304V37.32C43.4781 37.032 43.4861 36.704 43.5021 36.336C43.5181 35.952 43.5421 35.584 43.5741 35.232C43.3181 35.248 43.0141 35.264 42.6621 35.28C42.3261 35.28 42.0701 35.288 41.8941 35.304V33.48C42.6301 33.48 43.2541 33.44 43.7661 33.36C44.2781 33.28 44.6781 33.184 44.9661 33.072C45.2701 32.96 45.4781 32.856 45.5901 32.76H46.8861V41.136C46.8861 41.36 46.8781 41.68 46.8621 42.096C46.8461 42.496 46.8221 42.88 46.7901 43.248C47.0461 43.216 47.3261 43.2 47.6301 43.2C47.9501 43.184 48.1901 43.176 48.3501 43.176V45H42.0621V43.44ZM45.0621 30.864C44.5181 30.864 44.0701 30.672 43.7181 30.288C43.3661 29.904 43.1901 29.44 43.1901 28.896C43.1901 28.352 43.3741 27.888 43.7421 27.504C44.1101 27.12 44.5421 26.928 45.0381 26.928C45.5501 26.928 45.9741 27.12 46.3101 27.504C46.6621 27.888 46.8381 28.352 46.8381 28.896C46.8381 29.44 46.6781 29.904 46.3581 30.288C46.0381 30.672 45.6061 30.864 45.0621 30.864ZM51.2097 39.888L50.2977 30C50.2497 29.488 50.3697 29 50.6577 28.536C50.9617 28.056 51.4177 27.816 52.0257 27.816C52.6817 27.816 53.1377 28.056 53.3937 28.536C53.6657 29 53.7777 29.488 53.7297 30L52.8417 39.888H51.2097ZM52.0017 45.384C51.5377 45.384 51.1297 45.2 50.7777 44.832C50.4417 44.464 50.2737 44.024 50.2737 43.512C50.2737 43 50.4497 42.56 50.8017 42.192C51.1537 41.824 51.5617 41.64 52.0257 41.64C52.5217 41.64 52.9297 41.824 53.2497 42.192C53.5857 42.56 53.7537 43 53.7537 43.512C53.7537 44.024 53.5777 44.464 53.2257 44.832C52.8737 45.2 52.4657 45.384 52.0017 45.384Z" fill="white"/>
<defs>
<radialGradient id="paint0_radial" cx="0" cy="0" r="1" gradientUnits="userSpaceOnUse" gradientTransform="translate(16 51) rotate(-14.8265) scale(70.342)">
<stop stop-color="#FD4200"/>
<stop offset="1" stop-color="#FF7F30"/>
</radialGradient>
</defs>
</svg>
